<?xml version="1.0" encoding="UTF-8" standalone="no"?>
<svg width="512px" height="465px" viewBox="0 0 512 465" version="1.1" xmlns="http://www.w3.org/2000/svg" preserveAspectRatio="xMidYMid">
	<g>
		<path d="M371.279223,234.548349 C371.279223,234.548349 449.410922,409.107881 384.428382,455.998089 C319.445841,502.888298 199.13733,334.702542 199.13733,334.702542 L262.235211,234.548349 L371.279223,234.548349 Z" fill-opacity="0.9" fill="#E00097"></path>
		<path d="M313.767815,334.957483 C313.767815,334.957483 200.825696,492.055411 127.553251,459.613093 C54.2808065,427.168777 141.795223,234.958635 141.795223,234.958635 L254.584313,234.958635 L313.767815,334.957483 Z" fill-opacity="0.9" fill="#7649BB"></path>
		<path d="M199.13733,334.703541 C199.13733,334.703541 8.79521093,316.097711 0.257548488,236.419522 C-8.282112,156.741332 198.771687,135.480095 198.771687,135.480095 L146.878364,237.210749 L199.13733,334.703541 Z" fill-opacity="0.9" fill="#F26B00"></path>
		<path d="M141.376337,234.964542 C141.376337,234.964542 61.4124269,55.3399571 126.145211,8.1060839 C190.879994,-39.1277893 313.724029,135.509666 313.724029,135.509666 L252.458482,234.964541 L141.376337,234.964542 Z" fill-opacity="0.9" fill="#E00097"></path>
		<path d="M198.569824,135.962405 C198.569824,135.962405 206.408496,123.60526 209.23199,119.858524 C230.250898,91.9667312 322.820577,-24.102897 387.415864,4.49925928 C451.030551,32.6672153 396.623598,178.001375 381.176088,215.823886 C378.830901,221.565967 370.582413,234.398562 370.582413,234.398562 L256.900368,234.398562 L198.569824,135.962405 Z" fill-opacity="0.9" fill="#7649BB"></path>
		<path d="M313.723429,135.509866 C313.723429,135.509866 502.702879,153.550249 511.24254,233.228438 C519.780202,312.906627 313.961197,334.433605 313.961197,334.433605 L257.997629,233.228441 L313.723429,135.509866 Z" fill-opacity="0.9" fill="#F26B00"></path>
		<path d="M376.433443,234.895075 C376.442339,253.354758 374.932456,285.207802 373.812672,302.489503 C359.277234,312.327843 332.278426,329.867577 316.31541,339.083828 C300.415602,348.263587 272.248385,362.786025 256.797833,370.417783 C240.839769,362.775775 212.046902,348.2821 196.196996,339.155813 C196.196996,339.155813 153.604767,312.56584 139.090379,302.668491 C137.755343,285.118542 135.955572,235.012374 135.955572,235.012374 C135.947375,216.775214 137.720622,184.846237 139.045833,167.331751 C153.578263,157.408152 196.077998,130.826521 196.077998,130.826521 C211.894208,121.695028 240.512065,107.246802 256.370961,99.6348367 C272.018089,107.228 300.36965,121.644792 316.191157,130.754852 C332.191845,139.968077 359.037625,157.187165 373.456384,166.791743 C374.717049,184.297635 376.433443,234.895075 376.433443,234.895075" fill="#00D8FF"></path>
		<path d="M307.955462,236.499843 C307.955462,264.964046 284.879997,288.039511 256.415794,288.039511 C227.951591,288.039511 204.876126,264.964046 204.876126,236.499843 C204.876126,208.03564 227.951591,184.960175 256.415794,184.960175 C284.879997,184.960175 307.955462,208.03564 307.955462,236.499843" fill="#FFFFFF"></path>
	</g>
</svg>
