<?xml version="1.0" standalone="no"?>
<!DOCTYPE svg PUBLIC "-//W3C//DTD SVG 20010904//EN"
 "http://www.w3.org/TR/2001/REC-SVG-20010904/DTD/svg10.dtd">
<svg version="1.0" xmlns="http://www.w3.org/2000/svg"
 width="1536.000000pt" height="1536.000000pt" viewBox="0 0 1536.000000 1536.000000"
 preserveAspectRatio="xMidYMid meet">
<metadata>
Created by potrace 1.14, written by Peter Selinger 2001-2017
</metadata>
<g transform="translate(0.000000,1536.000000) scale(0.100000,-0.100000)"
fill="#000000" stroke="none">
<path d="M7510 12105 c-30 -8 -75 -15 -100 -15 -25 0 -56 -7 -70 -15 -14 -8
-38 -15 -55 -15 -16 0 -41 -7 -55 -15 -14 -8 -36 -14 -48 -15 -13 0 -36 -6
-50 -14 -56 -28 -120 -56 -131 -56 -6 0 -11 -4 -11 -9 0 -5 -12 -12 -27 -16
-15 -3 -30 -10 -33 -13 -3 -4 -23 -16 -45 -27 -22 -11 -56 -32 -75 -47 -19
-16 -38 -28 -43 -28 -8 0 -39 -24 -126 -95 -42 -35 -164 -159 -206 -210 -22
-26 -48 -57 -57 -67 -10 -10 -18 -20 -18 -23 0 -3 -20 -34 -45 -71 -25 -36
-45 -69 -45 -74 0 -5 -6 -15 -12 -22 -7 -7 -27 -42 -44 -78 -181 -378 -219
-795 -108 -1200 8 -30 19 -64 24 -75 4 -11 18 -49 31 -85 12 -36 26 -67 30
-70 4 -3 11 -18 14 -33 4 -15 11 -27 15 -27 5 0 11 -13 15 -30 4 -16 11 -30
16 -30 5 0 9 -5 9 -12 0 -6 23 -44 50 -85 28 -40 50 -76 50 -79 0 -3 13 -19
30 -37 16 -18 30 -35 30 -39 0 -11 218 -228 229 -228 5 0 11 -3 13 -8 5 -13
94 -82 106 -82 6 0 12 -3 14 -7 4 -10 65 -53 73 -53 4 0 13 -7 21 -15 9 -8 24
-15 33 -15 10 0 24 -7 31 -15 7 -8 20 -15 30 -15 10 0 23 -7 30 -15 7 -8 18
-15 25 -15 8 0 27 -7 44 -15 17 -8 45 -22 62 -30 17 -8 41 -15 53 -15 12 0 31
-7 42 -15 10 -8 35 -15 55 -15 19 0 44 -7 55 -15 10 -8 41 -15 69 -15 28 0 72
-7 99 -15 66 -20 335 -20 426 0 36 8 81 14 101 15 20 0 53 7 72 15 20 8 47 15
59 15 13 0 35 6 49 14 14 7 42 16 62 20 21 4 37 11 37 16 0 6 10 10 22 10 19
0 175 73 243 113 89 54 209 142 266 197 15 14 43 39 63 57 20 17 36 34 36 37
0 2 14 20 31 38 96 103 191 248 262 398 72 153 76 164 107 282 45 176 55 257
54 453 -1 154 -5 198 -28 308 -37 178 -62 253 -140 412 -52 106 -129 229 -198
317 -50 63 -203 216 -256 255 -20 15 -39 31 -42 34 -3 3 -34 25 -70 49 -36 23
-76 50 -90 60 -31 21 -215 110 -228 110 -5 0 -23 7 -38 15 -16 8 -38 15 -49
15 -12 0 -26 5 -31 10 -6 6 -33 15 -60 20 -27 5 -67 13 -89 19 -165 41 -449
54 -565 26z"/>
<path d="M4275 6639 c-60 -6 -133 -16 -161 -24 -28 -8 -64 -15 -80 -15 -16 -1
-40 -7 -54 -15 -14 -8 -37 -14 -51 -15 -14 0 -34 -7 -45 -15 -10 -8 -31 -15
-45 -15 -15 0 -32 -7 -39 -15 -7 -8 -23 -15 -36 -15 -12 0 -29 -6 -36 -13 -7
-8 -26 -17 -41 -21 -15 -3 -27 -11 -27 -16 0 -6 -9 -10 -19 -10 -11 0 -23 -5
-26 -11 -4 -5 -17 -15 -28 -20 -38 -17 -160 -99 -165 -111 -2 -5 -7 -8 -12 -8
-25 0 -320 -292 -320 -317 0 -3 -13 -22 -30 -43 -16 -21 -30 -42 -30 -48 0 -5
-7 -12 -15 -16 -8 -3 -15 -12 -15 -20 0 -8 -6 -21 -13 -28 -14 -15 -95 -176
-114 -228 -47 -126 -80 -237 -94 -320 -6 -36 -15 -71 -21 -77 -15 -18 -14
-444 1 -472 7 -12 18 -54 26 -94 7 -40 20 -98 29 -131 29 -102 118 -321 138
-336 4 -3 12 -17 18 -30 5 -14 19 -38 30 -55 11 -16 23 -36 26 -43 4 -8 20
-28 35 -45 16 -17 29 -37 29 -45 0 -7 7 -15 15 -18 8 -4 15 -11 15 -18 1 -10
196 -207 260 -262 120 -103 435 -266 560 -291 14 -3 39 -11 57 -19 17 -8 46
-14 65 -14 18 0 53 -7 78 -16 36 -13 92 -16 275 -17 233 -1 288 5 440 48 28 8
59 16 70 19 28 7 104 34 140 50 156 71 266 130 273 148 2 4 8 8 13 8 9 0 61
33 85 55 6 6 31 26 55 44 40 32 199 189 224 222 6 8 36 47 67 87 30 40 62 85
69 100 8 15 17 29 20 32 6 6 99 195 125 254 27 64 75 244 90 341 66 421 -28
845 -267 1200 -60 90 -143 191 -216 263 -58 57 -147 132 -157 132 -2 0 -20 14
-38 30 -18 17 -38 30 -46 30 -7 0 -15 7 -18 15 -4 8 -12 15 -19 15 -6 0 -31
14 -53 30 -23 17 -48 30 -56 30 -7 0 -19 7 -26 15 -7 8 -20 15 -30 15 -10 0
-23 7 -30 15 -7 8 -22 15 -34 15 -12 0 -31 7 -42 15 -10 8 -28 15 -39 15 -11
0 -29 7 -39 15 -11 8 -31 15 -45 15 -14 1 -37 7 -51 15 -14 8 -42 14 -63 15
-21 0 -50 6 -65 14 -15 7 -74 16 -132 20 -58 3 -134 8 -170 10 -36 2 -114 0
-175 -5z"/>
<path d="M10700 6639 c-63 -5 -138 -16 -166 -24 -28 -8 -66 -15 -85 -15 -19 0
-43 -7 -53 -15 -11 -8 -32 -15 -46 -15 -14 0 -35 -7 -46 -15 -10 -8 -29 -15
-42 -15 -13 0 -30 -7 -38 -15 -9 -8 -26 -15 -39 -15 -13 0 -30 -7 -39 -15 -8
-8 -21 -15 -30 -15 -8 0 -21 -6 -28 -12 -7 -7 -35 -24 -61 -38 -88 -46 -97
-51 -97 -61 0 -5 -5 -9 -10 -9 -17 0 -87 -52 -174 -130 -89 -79 -206 -204
-206 -219 0 -6 -4 -11 -8 -11 -5 0 -33 -37 -63 -82 -99 -149 -117 -181 -163
-290 -62 -151 -81 -219 -117 -413 -14 -75 -14 -433 0 -500 5 -27 17 -81 24
-120 46 -221 172 -484 326 -675 47 -59 203 -214 266 -265 60 -49 171 -122 240
-159 28 -15 57 -31 65 -35 59 -33 197 -87 250 -98 14 -2 39 -11 57 -19 17 -8
46 -14 65 -14 18 0 53 -7 78 -16 36 -13 92 -16 282 -16 242 -1 271 2 434 48
28 8 59 14 68 14 10 0 30 6 44 14 15 8 47 22 72 31 71 27 189 85 256 126 134
81 305 222 365 298 18 24 49 59 66 78 18 18 33 37 33 42 0 5 4 11 9 13 12 5
111 150 111 164 0 6 7 17 15 24 8 7 15 21 15 31 0 11 4 19 10 19 5 0 13 12 16
26 4 14 19 50 35 81 16 31 29 63 29 71 0 8 6 28 13 45 18 41 42 124 62 213 35
158 35 515 0 652 -8 31 -15 65 -15 75 0 30 -49 177 -76 229 -8 14 -14 35 -14
46 0 11 -7 25 -15 32 -8 7 -15 20 -15 30 0 10 -7 23 -15 30 -8 7 -15 20 -15
29 0 9 -5 22 -11 28 -14 14 -36 52 -45 76 -3 9 -10 17 -15 17 -5 0 -14 10 -19
23 -12 27 -30 54 -50 77 -8 9 -33 39 -55 66 -94 115 -318 314 -354 314 -5 0
-14 6 -18 13 -4 7 -26 21 -48 32 -22 11 -44 26 -48 33 -4 6 -16 12 -26 12 -10
0 -24 7 -31 15 -7 8 -20 15 -30 15 -10 0 -23 7 -30 15 -7 8 -22 15 -34 15 -11
0 -30 7 -40 15 -11 8 -29 15 -40 15 -12 0 -30 7 -40 15 -11 8 -34 15 -50 15
-17 0 -40 7 -50 15 -11 8 -34 15 -52 15 -18 0 -45 5 -61 11 -26 11 -103 19
-293 32 -41 3 -127 1 -190 -4z"/>
</g>
</svg>
