<?xml version="1.0" encoding="UTF-8"?>
<svg width="32px" height="32px" viewBox="0 0 32 32" version="1.1" xmlns="http://www.w3.org/2000/svg" xmlns:xlink="http://www.w3.org/1999/xlink" preserveAspectRatio="xMidYMid">
    <g>
        <path d="M32,8.52645161 C32,9.07698925 31.8073118,9.54494624 31.4219355,9.93032258 L13.6670968,27.6851613 C13.2817204,28.0705376 12.8137634,28.2632258 12.2632258,28.2632258 C11.7126882,28.2632258 11.2447312,28.0705376 10.8593548,27.6851613 L0.578064516,17.403871 C0.192688172,17.0184946 0,16.5505376 0,16 C0,15.4494624 0.192688172,14.9815054 0.578064516,14.596129 L3.38580645,11.7883871 C3.7711828,11.4030108 4.23913978,11.2103226 4.78967742,11.2103226 C5.34021505,11.2103226 5.80817204,11.4030108 6.19354839,11.7883871 L12.2632258,17.8787097 L25.8064516,4.31483871 C26.191828,3.92946237 26.6597849,3.73677419 27.2103226,3.73677419 C27.7608602,3.73677419 28.2288172,3.92946237 28.6141935,4.31483871 L31.4219355,7.12258065 C31.8073118,7.50795699 32,7.97591398 32,8.52645161 Z" fill="currentColor"></path>
    </g>
</svg>
