<?xml version="1.0" encoding="UTF-8"?>
<svg width="32px" height="32px" viewBox="0 0 32 32" version="1.1" xmlns="http://www.w3.org/2000/svg" xmlns:xlink="http://www.w3.org/1999/xlink" preserveAspectRatio="xMidYMid">
    <g>
        <path d="M21.3333333,16 C21.3333333,17.4722222 20.8125,18.7291667 19.7708333,19.7708333 C18.7291667,20.8125 17.4722222,21.3333333 16,21.3333333 C14.5277778,21.3333333 13.2708333,20.8125 12.2291667,19.7708333 C11.1875,18.7291667 10.6666667,17.4722222 10.6666667,16 C10.6666667,14.5277778 11.1875,13.2708333 12.2291667,12.2291667 C13.2708333,11.1875 14.5277778,10.6666667 16,10.6666667 C17.4722222,10.6666667 18.7291667,11.1875 19.7708333,12.2291667 C20.8125,13.2708333 21.3333333,14.5277778 21.3333333,16 Z M16,4.66666667 C13.9444444,4.66666667 12.0486111,5.17361111 10.3125,6.1875 C8.57638889,7.20138889 7.20138889,8.57638889 6.1875,10.3125 C5.17361111,12.0486111 4.66666667,13.9444444 4.66666667,16 C4.66666667,18.0555556 5.17361111,19.9513889 6.1875,21.6875 C7.20138889,23.4236111 8.57638889,24.7986111 10.3125,25.8125 C12.0486111,26.8263889 13.9444444,27.3333333 16,27.3333333 C18.0555556,27.3333333 19.9513889,26.8263889 21.6875,25.8125 C23.4236111,24.7986111 24.7986111,23.4236111 25.8125,21.6875 C26.8263889,19.9513889 27.3333333,18.0555556 27.3333333,16 C27.3333333,13.9444444 26.8263889,12.0486111 25.8125,10.3125 C24.7986111,8.57638889 23.4236111,7.20138889 21.6875,6.1875 C19.9513889,5.17361111 18.0555556,4.66666667 16,4.66666667 Z M32,16 C32,18.9027778 31.2847222,21.5798611 29.8541667,24.03125 C28.4236111,26.4826389 26.4826389,28.4236111 24.03125,29.8541667 C21.5798611,31.2847222 18.9027778,32 16,32 C13.0972222,32 10.4201389,31.2847222 7.96875,29.8541667 C5.51736111,28.4236111 3.57638889,26.4826389 2.14583333,24.03125 C0.715277778,21.5798611 0,18.9027778 0,16 C0,13.0972222 0.715277778,10.4201389 2.14583333,7.96875 C3.57638889,5.51736111 5.51736111,3.57638889 7.96875,2.14583333 C10.4201389,0.715277778 13.0972222,0 16,0 C18.9027778,0 21.5798611,0.715277778 24.03125,2.14583333 C26.4826389,3.57638889 28.4236111,5.51736111 29.8541667,7.96875 C31.2847222,10.4201389 32,13.0972222 32,16 Z" fill="currentColor" ></path>
    </g>
</svg>
