<?xml version="1.0" encoding="UTF-8"?>
<svg width="32px" height="32px" viewBox="0 0 32 32" version="1.1" xmlns="http://www.w3.org/2000/svg" xmlns:xlink="http://www.w3.org/1999/xlink" preserveAspectRatio="xMidYMid">
    <g>
        <path d="M16,0 C18.9027778,0 21.5798611,0.715277778 24.03125,2.14583333 C26.4826389,3.57638889 28.4236111,5.51736111 29.8541667,7.96875 C31.2847222,10.4201389 32,13.0972222 32,16 C32,18.9027778 31.2847222,21.5798611 29.8541667,24.03125 C28.4236111,26.4826389 26.4826389,28.4236111 24.03125,29.8541667 C21.5798611,31.2847222 18.9027778,32 16,32 C13.0972222,32 10.4201389,31.2847222 7.96875,29.8541667 C5.51736111,28.4236111 3.57638889,26.4826389 2.14583333,24.03125 C0.715277778,21.5798611 0,18.9027778 0,16 C0,13.0972222 0.715277778,10.4201389 2.14583333,7.96875 C3.57638889,5.51736111 5.51736111,3.57638889 7.96875,2.14583333 C10.4201389,0.715277778 13.0972222,0 16,0 Z M18.6666667,25.9791667 L18.6666667,22.0208333 C18.6666667,21.8263889 18.6041667,21.6631944 18.4791667,21.53125 C18.3541667,21.3993056 18.2013889,21.3333333 18.0208333,21.3333333 L14.0208333,21.3333333 C13.8402778,21.3333333 13.6805556,21.4027778 13.5416667,21.5416667 C13.4027778,21.6805556 13.3333333,21.8402778 13.3333333,22.0208333 L13.3333333,25.9791667 C13.3333333,26.1597222 13.4027778,26.3194444 13.5416667,26.4583333 C13.6805556,26.5972222 13.8402778,26.6666667 14.0208333,26.6666667 L18.0208333,26.6666667 C18.2013889,26.6666667 18.3541667,26.6006944 18.4791667,26.46875 C18.6041667,26.3368056 18.6666667,26.1736111 18.6666667,25.9791667 Z M18.625,18.8125 L19,5.875 C19,5.70833333 18.9305556,5.58333333 18.7916667,5.5 C18.6527778,5.38888889 18.4861111,5.33333333 18.2916667,5.33333333 L13.7083333,5.33333333 C13.5138889,5.33333333 13.3472222,5.38888889 13.2083333,5.5 C13.0694444,5.58333333 13,5.70833333 13,5.875 L13.3541667,18.8125 C13.3541667,18.9513889 13.4236111,19.0729167 13.5625,19.1770833 C13.7013889,19.28125 13.8680556,19.3333333 14.0625,19.3333333 L17.9166667,19.3333333 C18.1111111,19.3333333 18.2743056,19.28125 18.40625,19.1770833 C18.5381944,19.0729167 18.6111111,18.9513889 18.625,18.8125 Z" fill="currentColor" ></path>
    </g>
</svg>
