<?xml version="1.0" encoding="UTF-8"?>
<svg width="32px" height="32px" viewBox="0 0 32 32" version="1.1" xmlns="http://www.w3.org/2000/svg" xmlns:xlink="http://www.w3.org/1999/xlink" preserveAspectRatio="xMidYMid">
    <g>
        <path d="M18.3333333,22.3333333 L18.3333333,25.6666667 C18.3333333,25.8611111 18.2708333,26.0208333 18.1458333,26.1458333 C18.0208333,26.2708333 17.8611111,26.3333333 17.6666667,26.3333333 L14.3333333,26.3333333 C14.1388889,26.3333333 13.9791667,26.2708333 13.8541667,26.1458333 C13.7291667,26.0208333 13.6666667,25.8611111 13.6666667,25.6666667 L13.6666667,22.3333333 C13.6666667,22.1388889 13.7291667,21.9791667 13.8541667,21.8541667 C13.9791667,21.7291667 14.1388889,21.6666667 14.3333333,21.6666667 L17.6666667,21.6666667 C17.8611111,21.6666667 18.0208333,21.7291667 18.1458333,21.8541667 C18.2708333,21.9791667 18.3333333,22.1388889 18.3333333,22.3333333 Z M23.6666667,12 C23.6666667,12.6944444 23.5625,13.3194444 23.3541667,13.875 C23.1458333,14.4305556 22.8298611,14.9097222 22.40625,15.3125 C21.9826389,15.7152778 21.6215278,16.0208333 21.3229167,16.2291667 C21.0243056,16.4375 20.6111111,16.6875 20.0833333,16.9791667 C19.6388889,17.2291667 19.3159722,17.4236111 19.1145833,17.5625 C18.9131944,17.7013889 18.7326389,17.8680556 18.5729167,18.0625 C18.4131944,18.2569444 18.3333333,18.4583333 18.3333333,18.6666667 L18.3333333,19.3333333 C18.3333333,19.5277778 18.2708333,19.6875 18.1458333,19.8125 C18.0208333,19.9375 17.8611111,20 17.6666667,20 L14.3333333,20 C14.1388889,20 13.9791667,19.9375 13.8541667,19.8125 C13.7291667,19.6875 13.6666667,19.5277778 13.6666667,19.3333333 L13.6666667,17.9166667 C13.6666667,17.4305556 13.7395833,16.9826389 13.8854167,16.5729167 C14.03125,16.1631944 14.1979167,15.8333333 14.3854167,15.5833333 C14.5729167,15.3333333 14.84375,15.0868056 15.1979167,14.84375 C15.5520833,14.6006944 15.8368056,14.4236111 16.0520833,14.3125 C16.2673611,14.2013889 16.5763889,14.0555556 16.9791667,13.875 C17.7152778,13.5277778 18.2361111,13.2291667 18.5416667,12.9791667 C18.8472222,12.7291667 19,12.3888889 19,11.9583333 C19,11.375 18.6979167,10.8784722 18.09375,10.46875 C17.4895833,10.0590278 16.8263889,9.85416667 16.1041667,9.85416667 C15.3263889,9.85416667 14.6666667,10.0416667 14.125,10.4166667 C13.7222222,10.6944444 13.1666667,11.2708333 12.4583333,12.1458333 C12.3333333,12.3125 12.1597222,12.3958333 11.9375,12.3958333 C11.7847222,12.3958333 11.6527778,12.3541667 11.5416667,12.2708333 L9.29166667,10.5625 C9.15277778,10.4652778 9.06944444,10.3263889 9.04166667,10.1458333 C9.01388889,9.96527778 9.04861111,9.80555556 9.14583333,9.66666667 C10.8402778,7 13.2638889,5.66666667 16.4166667,5.66666667 C18.2083333,5.66666667 19.8645833,6.28819444 21.3854167,7.53125 C22.90625,8.77430556 23.6666667,10.2638889 23.6666667,12 Z M16,2.66666667 C14.1944444,2.66666667 12.46875,3.02083333 10.8229167,3.72916667 C9.17708333,4.4375 7.76041667,5.38541667 6.57291667,6.57291667 C5.38541667,7.76041667 4.4375,9.17708333 3.72916667,10.8229167 C3.02083333,12.46875 2.66666667,14.1944444 2.66666667,16 C2.66666667,17.8055556 3.02083333,19.53125 3.72916667,21.1770833 C4.4375,22.8229167 5.38541667,24.2395833 6.57291667,25.4270833 C7.76041667,26.6145833 9.17708333,27.5625 10.8229167,28.2708333 C12.46875,28.9791667 14.1944444,29.3333333 16,29.3333333 C17.8055556,29.3333333 19.53125,28.9791667 21.1770833,28.2708333 C22.8229167,27.5625 24.2395833,26.6145833 25.4270833,25.4270833 C26.6145833,24.2395833 27.5625,22.8229167 28.2708333,21.1770833 C28.9791667,19.53125 29.3333333,17.8055556 29.3333333,16 C29.3333333,14.1944444 28.9791667,12.46875 28.2708333,10.8229167 C27.5625,9.17708333 26.6145833,7.76041667 25.4270833,6.57291667 C24.2395833,5.38541667 22.8229167,4.4375 21.1770833,3.72916667 C19.53125,3.02083333 17.8055556,2.66666667 16,2.66666667 Z M32,16 C32,18.9027778 31.2847222,21.5798611 29.8541667,24.03125 C28.4236111,26.4826389 26.4826389,28.4236111 24.03125,29.8541667 C21.5798611,31.2847222 18.9027778,32 16,32 C13.0972222,32 10.4201389,31.2847222 7.96875,29.8541667 C5.51736111,28.4236111 3.57638889,26.4826389 2.14583333,24.03125 C0.715277778,21.5798611 0,18.9027778 0,16 C0,13.0972222 0.715277778,10.4201389 2.14583333,7.96875 C3.57638889,5.51736111 5.51736111,3.57638889 7.96875,2.14583333 C10.4201389,0.715277778 13.0972222,0 16,0 C18.9027778,0 21.5798611,0.715277778 24.03125,2.14583333 C26.4826389,3.57638889 28.4236111,5.51736111 29.8541667,7.96875 C31.2847222,10.4201389 32,13.0972222 32,16 Z" fill="currentColor" ></path>
    </g>
</svg>
