<?xml version="1.0" encoding="UTF-8"?>
<svg width="32px" height="32px" viewBox="0 0 32 32" version="1.1" xmlns="http://www.w3.org/2000/svg" xmlns:xlink="http://www.w3.org/1999/xlink" preserveAspectRatio="xMidYMid">
    <g>
        <path d="M24.6666667,16 C24.6666667,16.3611111 24.5347222,16.6736111 24.2708333,16.9375 L12.9375,28.2708333 C12.6736111,28.5347222 12.3611111,28.6666667 12,28.6666667 C11.6388889,28.6666667 11.3263889,28.5347222 11.0625,28.2708333 C10.7986111,28.0069444 10.6666667,27.6944444 10.6666667,27.3333333 L10.6666667,21.3333333 L1.33333333,21.3333333 C0.972222222,21.3333333 0.659722222,21.2013889 0.395833333,20.9375 C0.131944444,20.6736111 0,20.3611111 0,20 L0,12 C0,11.6388889 0.131944444,11.3263889 0.395833333,11.0625 C0.659722222,10.7986111 0.972222222,10.6666667 1.33333333,10.6666667 L10.6666667,10.6666667 L10.6666667,4.66666667 C10.6666667,4.30555556 10.7986111,3.99305556 11.0625,3.72916667 C11.3263889,3.46527778 11.6388889,3.33333333 12,3.33333333 C12.3611111,3.33333333 12.6736111,3.46527778 12.9375,3.72916667 L24.2708333,15.0625 C24.5347222,15.3263889 24.6666667,15.6388889 24.6666667,16 Z M32,8.66666667 L32,23.3333333 C32,24.9861111 31.4131944,26.3993056 30.2395833,27.5729167 C29.0659722,28.7465278 27.6527778,29.3333333 26,29.3333333 L19.3333333,29.3333333 C19.1527778,29.3333333 18.9965278,29.2673611 18.8645833,29.1354167 C18.7326389,29.0034722 18.6666667,28.8472222 18.6666667,28.6666667 C18.6666667,28.6111111 18.6597222,28.4722222 18.6458333,28.25 C18.6319444,28.0277778 18.6284722,27.84375 18.6354167,27.6979167 C18.6423611,27.5520833 18.6631944,27.3888889 18.6979167,27.2083333 C18.7326389,27.0277778 18.8020833,26.8923611 18.90625,26.8020833 C19.0104167,26.7118056 19.1527778,26.6666667 19.3333333,26.6666667 L26,26.6666667 C26.9166667,26.6666667 27.7013889,26.3402778 28.3541667,25.6875 C29.0069444,25.0347222 29.3333333,24.25 29.3333333,23.3333333 L29.3333333,8.66666667 C29.3333333,7.75 29.0069444,6.96527778 28.3541667,6.3125 C27.7013889,5.65972222 26.9166667,5.33333333 26,5.33333333 L19.5,5.33333333 C19.5,5.33333333 19.4201389,5.32638889 19.2604167,5.3125 C19.1006944,5.29861111 19.0208333,5.27777778 19.0208333,5.25 C19.0208333,5.22222222 18.9652778,5.18402778 18.8541667,5.13541667 C18.7430556,5.08680556 18.6944444,5.02430556 18.7083333,4.94791667 C18.7222222,4.87152778 18.7083333,4.77777778 18.6666667,4.66666667 C18.6666667,4.61111111 18.6597222,4.47222222 18.6458333,4.25 C18.6319444,4.02777778 18.6284722,3.84375 18.6354167,3.69791667 C18.6423611,3.55208333 18.6631944,3.38888889 18.6979167,3.20833333 C18.7326389,3.02777778 18.8020833,2.89236111 18.90625,2.80208333 C19.0104167,2.71180556 19.1527778,2.66666667 19.3333333,2.66666667 L26,2.66666667 C27.6527778,2.66666667 29.0659722,3.25347222 30.2395833,4.42708333 C31.4131944,5.60069444 32,7.01388889 32,8.66666667 Z" fill="currentColor" ></path>
    </g>
</svg>
