<?xml version="1.0" encoding="UTF-8"?>
<svg width="32px" height="32px" viewBox="0 0 32 32" version="1.1" xmlns="http://www.w3.org/2000/svg" xmlns:xlink="http://www.w3.org/1999/xlink" preserveAspectRatio="xMidYMid">
    <g>
        <path d="M16.2857143,30.2857143 C16.2857143,30.0952381 16.1904762,30 16,30 C15.297619,30 14.6934524,29.7470238 14.1875,29.2410714 C13.6815476,28.735119 13.4285714,28.1309524 13.4285714,27.4285714 C13.4285714,27.2380952 13.3333333,27.1428571 13.1428571,27.1428571 C12.952381,27.1428571 12.8571429,27.2380952 12.8571429,27.4285714 C12.8571429,28.297619 13.1636905,29.0386905 13.7767857,29.6517857 C14.389881,30.264881 15.1309524,30.5714286 16,30.5714286 C16.1904762,30.5714286 16.2857143,30.4761905 16.2857143,30.2857143 Z M4.39285714,25.1428571 L27.6071429,25.1428571 C24.4404762,21.5714286 22.8571429,16.6190476 22.8571429,10.2857143 C22.8571429,9.67857143 22.7142857,9.05357143 22.4285714,8.41071429 C22.1428571,7.76785714 21.7321429,7.1547619 21.1964286,6.57142857 C20.6607143,5.98809524 19.9375,5.50892857 19.0267857,5.13392857 C18.1160714,4.75892857 17.1071429,4.57142857 16,4.57142857 C14.8928571,4.57142857 13.8839286,4.75892857 12.9732143,5.13392857 C12.0625,5.50892857 11.3392857,5.98809524 10.8035714,6.57142857 C10.2678571,7.1547619 9.85714286,7.76785714 9.57142857,8.41071429 C9.28571429,9.05357143 9.14285714,9.67857143 9.14285714,10.2857143 C9.14285714,16.6190476 7.55952381,21.5714286 4.39285714,25.1428571 Z M30.8571429,25.1428571 C30.8571429,25.7619048 30.6309524,26.297619 30.1785714,26.75 C29.7261905,27.202381 29.1904762,27.4285714 28.5714286,27.4285714 L20.5714286,27.4285714 C20.5714286,28.6904762 20.125,29.7678571 19.2321429,30.6607143 C18.3392857,31.5535714 17.2619048,32 16,32 C14.7380952,32 13.6607143,31.5535714 12.7678571,30.6607143 C11.875,29.7678571 11.4285714,28.6904762 11.4285714,27.4285714 L3.42857143,27.4285714 C2.80952381,27.4285714 2.27380952,27.202381 1.82142857,26.75 C1.36904762,26.297619 1.14285714,25.7619048 1.14285714,25.1428571 C1.73809524,24.6428571 2.2797619,24.1190476 2.76785714,23.5714286 C3.25595238,23.0238095 3.76190476,22.3125 4.28571429,21.4375 C4.80952381,20.5625 5.25297619,19.6190476 5.61607143,18.6071429 C5.97916667,17.5952381 6.27678571,16.3690476 6.50892857,14.9285714 C6.74107143,13.4880952 6.85714286,11.9404762 6.85714286,10.2857143 C6.85714286,8.47619048 7.55357143,6.79464286 8.94642857,5.24107143 C10.3392857,3.6875 12.1666667,2.74404762 14.4285714,2.41071429 C14.3333333,2.18452381 14.2857143,1.95238095 14.2857143,1.71428571 C14.2857143,1.23809524 14.452381,0.833333333 14.7857143,0.5 C15.1190476,0.166666667 15.5238095,0 16,0 C16.4761905,0 16.8809524,0.166666667 17.2142857,0.5 C17.547619,0.833333333 17.7142857,1.23809524 17.7142857,1.71428571 C17.7142857,1.95238095 17.6666667,2.18452381 17.5714286,2.41071429 C19.8333333,2.74404762 21.6607143,3.6875 23.0535714,5.24107143 C24.4464286,6.79464286 25.1428571,8.47619048 25.1428571,10.2857143 C25.1428571,11.9404762 25.2589286,13.4880952 25.4910714,14.9285714 C25.7232143,16.3690476 26.0208333,17.5952381 26.3839286,18.6071429 C26.7470238,19.6190476 27.1904762,20.5625 27.7142857,21.4375 C28.2380952,22.3125 28.7440476,23.0238095 29.2321429,23.5714286 C29.7202381,24.1190476 30.2619048,24.6428571 30.8571429,25.1428571 Z" fill="currentColor" ></path>
    </g>
</svg>
