<?xml version="1.0" encoding="UTF-8"?>
<svg width="32px" height="32px" viewBox="0 0 32 32" version="1.1" xmlns="http://www.w3.org/2000/svg" xmlns:xlink="http://www.w3.org/1999/xlink" preserveAspectRatio="xMidYMid">
    <g>
        <path d="M18.6666667,26 L18.6666667,22 C18.6666667,21.8055556 18.6041667,21.6458333 18.4791667,21.5208333 C18.3541667,21.3958333 18.1944444,21.3333333 18,21.3333333 L14,21.3333333 C13.8055556,21.3333333 13.6458333,21.3958333 13.5208333,21.5208333 C13.3958333,21.6458333 13.3333333,21.8055556 13.3333333,22 L13.3333333,26 C13.3333333,26.1944444 13.3958333,26.3541667 13.5208333,26.4791667 C13.6458333,26.6041667 13.8055556,26.6666667 14,26.6666667 L18,26.6666667 C18.1944444,26.6666667 18.3541667,26.6041667 18.4791667,26.4791667 C18.6041667,26.3541667 18.6666667,26.1944444 18.6666667,26 Z M24,12 C24,10.7777778 23.6145833,9.64583333 22.84375,8.60416667 C22.0729167,7.5625 21.1111111,6.75694444 19.9583333,6.1875 C18.8055556,5.61805556 17.625,5.33333333 16.4166667,5.33333333 C13.0416667,5.33333333 10.4652778,6.8125 8.6875,9.77083333 C8.47916667,10.1041667 8.53472222,10.3958333 8.85416667,10.6458333 L11.6041667,12.7291667 C11.7013889,12.8125 11.8333333,12.8541667 12,12.8541667 C12.2222222,12.8541667 12.3958333,12.7708333 12.5208333,12.6041667 C13.2569444,11.6597222 13.8541667,11.0208333 14.3125,10.6875 C14.7847222,10.3541667 15.3819444,10.1875 16.1041667,10.1875 C16.7708333,10.1875 17.3645833,10.3680556 17.8854167,10.7291667 C18.40625,11.0902778 18.6666667,11.5 18.6666667,11.9583333 C18.6666667,12.4861111 18.5277778,12.9097222 18.25,13.2291667 C17.9722222,13.5486111 17.5,13.8611111 16.8333333,14.1666667 C15.9583333,14.5555556 15.15625,15.15625 14.4270833,15.96875 C13.6979167,16.78125 13.3333333,17.6527778 13.3333333,18.5833333 L13.3333333,19.3333333 C13.3333333,19.5277778 13.3958333,19.6875 13.5208333,19.8125 C13.6458333,19.9375 13.8055556,20 14,20 L18,20 C18.1944444,20 18.3541667,19.9375 18.4791667,19.8125 C18.6041667,19.6875 18.6666667,19.5277778 18.6666667,19.3333333 C18.6666667,19.0694444 18.8159722,18.7256944 19.1145833,18.3020833 C19.4131944,17.8784722 19.7916667,17.5347222 20.25,17.2708333 C20.6944444,17.0208333 21.0347222,16.8229167 21.2708333,16.6770833 C21.5069444,16.53125 21.8263889,16.2881944 22.2291667,15.9479167 C22.6319444,15.6076389 22.9409722,15.2743056 23.15625,14.9479167 C23.3715278,14.6215278 23.5659722,14.2013889 23.7395833,13.6875 C23.9131944,13.1736111 24,12.6111111 24,12 Z M32,16 C32,18.9027778 31.2847222,21.5798611 29.8541667,24.03125 C28.4236111,26.4826389 26.4826389,28.4236111 24.03125,29.8541667 C21.5798611,31.2847222 18.9027778,32 16,32 C13.0972222,32 10.4201389,31.2847222 7.96875,29.8541667 C5.51736111,28.4236111 3.57638889,26.4826389 2.14583333,24.03125 C0.715277778,21.5798611 0,18.9027778 0,16 C0,13.0972222 0.715277778,10.4201389 2.14583333,7.96875 C3.57638889,5.51736111 5.51736111,3.57638889 7.96875,2.14583333 C10.4201389,0.715277778 13.0972222,0 16,0 C18.9027778,0 21.5798611,0.715277778 24.03125,2.14583333 C26.4826389,3.57638889 28.4236111,5.51736111 29.8541667,7.96875 C31.2847222,10.4201389 32,13.0972222 32,16 Z" fill="currentColor" ></path>
    </g>
</svg>
