<?xml version="1.0" standalone="no"?>
<!DOCTYPE svg PUBLIC "-//W3C//DTD SVG 20010904//EN"
 "http://www.w3.org/TR/2001/REC-SVG-20010904/DTD/svg10.dtd">
<svg version="1.0" xmlns="http://www.w3.org/2000/svg"
 width="16.000000pt" height="16.000000pt" viewBox="0 0 16.000000 16.000000"
 preserveAspectRatio="xMidYMid meet">
<metadata>
Created by potrace 1.11, written by Peter Selinger 2001-2013
</metadata>
<g transform="translate(0.000000,16.000000) scale(0.003125,-0.003125)"
fill="#000000" stroke="none">
<path d="M1400 4866 c-76 -22 -132 -56 -195 -120 -96 -96 -152 -219 -181 -394
-15 -93 -17 -355 -3 -452 5 -36 11 -81 14 -100 7 -66 16 -115 51 -274 19 -87
34 -159 32 -160 -2 -2 -48 -15 -103 -31 -364 -101 -665 -248 -837 -407 -205
-189 -233 -432 -78 -663 135 -201 419 -374 838 -511 74 -24 140 -44 148 -44
26 0 25 -26 -5 -143 -26 -102 -58 -256 -76 -367 -13 -87 -20 -196 -19 -325 1
-159 23 -274 74 -379 34 -72 133 -181 156 -172 8 3 12 2 9 -4 -6 -10 32 -32
102 -57 52 -18 237 -24 303 -10 62 14 115 30 124 39 6 4 16 8 23 8 18 0 196
89 204 102 3 5 10 9 14 7 4 -1 60 34 124 79 118 83 253 193 373 308 l68 63 43
-42 c329 -318 596 -498 827 -558 353 -91 612 127 665 561 16 127 0 425 -31
584 -2 11 -7 37 -10 56 -7 41 -42 198 -50 222 -3 12 4 18 28 23 56 12 349 110
433 145 250 103 456 242 549 368 42 57 90 151 82 159 -3 4 -1 12 6 20 6 8 11
50 11 96 1 101 -28 201 -86 290 -41 65 -188 214 -235 238 -15 8 -35 21 -45 31
-10 9 -40 27 -65 41 -26 14 -67 36 -92 49 -25 13 -81 39 -125 58 -44 19 -84
37 -90 41 -5 3 -83 30 -172 59 -90 29 -163 58 -163 64 0 6 15 72 34 146 39
150 74 325 82 410 3 30 9 87 13 125 8 70 6 292 -3 330 -2 11 -10 49 -16 85
-71 370 -409 516 -808 350 -187 -78 -355 -193 -608 -415 -7 -5 -48 -46 -93
-89 l-82 -79 -40 39 c-149 146 -270 252 -424 372 -127 99 -329 200 -450 226
-81 17 -190 18 -245 2z"/>
</g>
</svg>
