<?xml version="1.0" encoding="UTF-8"?>
<svg width="32px" height="32px" viewBox="0 0 32 32" version="1.1" xmlns="http://www.w3.org/2000/svg" xmlns:xlink="http://www.w3.org/1999/xlink" preserveAspectRatio="xMidYMid">
    <g>
        <path d="M13.0612245,27.1020408 C13.0612245,27.1564626 13.0680272,27.292517 13.0816327,27.5102041 C13.0952381,27.7278912 13.0986395,27.9081633 13.0918367,28.0510204 C13.085034,28.1938776 13.0646259,28.3537415 13.0306122,28.5306122 C12.9965986,28.707483 12.9285714,28.8401361 12.8265306,28.9285714 C12.7244898,29.0170068 12.585034,29.0612245 12.4081633,29.0612245 L5.87755102,29.0612245 C4.2585034,29.0612245 2.87414966,28.4863946 1.7244898,27.3367347 C0.574829932,26.1870748 0,24.8027211 0,23.1836735 L0,8.81632653 C0,7.19727891 0.574829932,5.81292517 1.7244898,4.66326531 C2.87414966,3.51360544 4.2585034,2.93877551 5.87755102,2.93877551 L12.4081633,2.93877551 C12.585034,2.93877551 12.7380952,3.00340136 12.8673469,3.13265306 C12.9965986,3.26190476 13.0612245,3.41496599 13.0612245,3.59183673 C13.0612245,3.6462585 13.0680272,3.78231293 13.0816327,4 C13.0952381,4.21768707 13.0986395,4.39795918 13.0918367,4.54081633 C13.085034,4.68367347 13.0646259,4.84353741 13.0306122,5.02040816 C12.9965986,5.19727891 12.9285714,5.32993197 12.8265306,5.41836735 C12.7244898,5.50680272 12.585034,5.55102041 12.4081633,5.55102041 L5.87755102,5.55102041 C4.97959184,5.55102041 4.21088435,5.8707483 3.57142857,6.51020408 C2.93197279,7.14965986 2.6122449,7.91836735 2.6122449,8.81632653 L2.6122449,23.1836735 C2.6122449,24.0816327 2.93197279,24.8503401 3.57142857,25.4897959 C4.21088435,26.1292517 4.97959184,26.4489796 5.87755102,26.4489796 L12.244898,26.4489796 C12.244898,26.4489796 12.3231293,26.4557823 12.4795918,26.4693878 C12.6360544,26.4829932 12.7142857,26.5034014 12.7142857,26.5306122 C12.7142857,26.5578231 12.7687075,26.5952381 12.877551,26.6428571 C12.9863946,26.6904762 13.0340136,26.7517007 13.0204082,26.8265306 C13.0068027,26.9013605 13.0204082,26.9931973 13.0612245,27.1020408 Z M32,16 C32,16.3537415 31.8707483,16.6598639 31.6122449,16.9183673 L20.5102041,28.0204082 C20.2517007,28.2789116 19.9455782,28.4081633 19.5918367,28.4081633 C19.2380952,28.4081633 18.9319728,28.2789116 18.6734694,28.0204082 C18.414966,27.7619048 18.2857143,27.4557823 18.2857143,27.1020408 L18.2857143,21.2244898 L9.14285714,21.2244898 C8.78911565,21.2244898 8.4829932,21.0952381 8.2244898,20.8367347 C7.96598639,20.5782313 7.83673469,20.2721088 7.83673469,19.9183673 L7.83673469,12.0816327 C7.83673469,11.7278912 7.96598639,11.4217687 8.2244898,11.1632653 C8.4829932,10.9047619 8.78911565,10.7755102 9.14285714,10.7755102 L18.2857143,10.7755102 L18.2857143,4.89795918 C18.2857143,4.54421769 18.414966,4.23809524 18.6734694,3.97959184 C18.9319728,3.72108844 19.2380952,3.59183673 19.5918367,3.59183673 C19.9455782,3.59183673 20.2517007,3.72108844 20.5102041,3.97959184 L31.6122449,15.0816327 C31.8707483,15.3401361 32,15.6462585 32,16 Z" fill="currentColor" ></path>
    </g>
</svg>
