<?xml version="1.0" encoding="UTF-8"?>
<svg width="32px" height="32px" viewBox="0 0 32 32" version="1.1" xmlns="http://www.w3.org/2000/svg" xmlns:xlink="http://www.w3.org/1999/xlink" preserveAspectRatio="xMidYMid">
    <g>
        <path d="M22.8541667,19.8125 L19.8125,22.8541667 C19.6736111,22.9930556 19.5138889,23.0625 19.3333333,23.0625 C19.1527778,23.0625 18.9930556,22.9930556 18.8541667,22.8541667 L16,20 L13.1458333,22.8541667 C13.0069444,22.9930556 12.8472222,23.0625 12.6666667,23.0625 C12.4861111,23.0625 12.3263889,22.9930556 12.1875,22.8541667 L9.14583333,19.8125 C9.00694444,19.6736111 8.9375,19.5138889 8.9375,19.3333333 C8.9375,19.1527778 9.00694444,18.9930556 9.14583333,18.8541667 L12,16 L9.14583333,13.1458333 C9.00694444,13.0069444 8.9375,12.8472222 8.9375,12.6666667 C8.9375,12.4861111 9.00694444,12.3263889 9.14583333,12.1875 L12.1875,9.14583333 C12.3263889,9.00694444 12.4861111,8.9375 12.6666667,8.9375 C12.8472222,8.9375 13.0069444,9.00694444 13.1458333,9.14583333 L16,12 L18.8541667,9.14583333 C18.9930556,9.00694444 19.1527778,8.9375 19.3333333,8.9375 C19.5138889,8.9375 19.6736111,9.00694444 19.8125,9.14583333 L22.8541667,12.1875 C22.9930556,12.3263889 23.0625,12.4861111 23.0625,12.6666667 C23.0625,12.8472222 22.9930556,13.0069444 22.8541667,13.1458333 L20,16 L22.8541667,18.8541667 C22.9930556,18.9930556 23.0625,19.1527778 23.0625,19.3333333 C23.0625,19.5138889 22.9930556,19.6736111 22.8541667,19.8125 Z M27.3333333,16 C27.3333333,13.9444444 26.8263889,12.0486111 25.8125,10.3125 C24.7986111,8.57638889 23.4236111,7.20138889 21.6875,6.1875 C19.9513889,5.17361111 18.0555556,4.66666667 16,4.66666667 C13.9444444,4.66666667 12.0486111,5.17361111 10.3125,6.1875 C8.57638889,7.20138889 7.20138889,8.57638889 6.1875,10.3125 C5.17361111,12.0486111 4.66666667,13.9444444 4.66666667,16 C4.66666667,18.0555556 5.17361111,19.9513889 6.1875,21.6875 C7.20138889,23.4236111 8.57638889,24.7986111 10.3125,25.8125 C12.0486111,26.8263889 13.9444444,27.3333333 16,27.3333333 C18.0555556,27.3333333 19.9513889,26.8263889 21.6875,25.8125 C23.4236111,24.7986111 24.7986111,23.4236111 25.8125,21.6875 C26.8263889,19.9513889 27.3333333,18.0555556 27.3333333,16 Z M32,16 C32,18.9027778 31.2847222,21.5798611 29.8541667,24.03125 C28.4236111,26.4826389 26.4826389,28.4236111 24.03125,29.8541667 C21.5798611,31.2847222 18.9027778,32 16,32 C13.0972222,32 10.4201389,31.2847222 7.96875,29.8541667 C5.51736111,28.4236111 3.57638889,26.4826389 2.14583333,24.03125 C0.715277778,21.5798611 0,18.9027778 0,16 C0,13.0972222 0.715277778,10.4201389 2.14583333,7.96875 C3.57638889,5.51736111 5.51736111,3.57638889 7.96875,2.14583333 C10.4201389,0.715277778 13.0972222,0 16,0 C18.9027778,0 21.5798611,0.715277778 24.03125,2.14583333 C26.4826389,3.57638889 28.4236111,5.51736111 29.8541667,7.96875 C31.2847222,10.4201389 32,13.0972222 32,16 Z" fill="currentColor" ></path>
    </g>
</svg>
