<?xml version="1.0" encoding="UTF-8"?>
<svg width="32px" height="32px" viewBox="0 0 32 32" version="1.1" xmlns="http://www.w3.org/2000/svg" xmlns:xlink="http://www.w3.org/1999/xlink" preserveAspectRatio="xMidYMid">
    <g>
        <path d="M31.9463087,25.7181208 C31.9463087,26.4340045 31.6957494,27.0425056 31.1946309,27.5436242 L27.5436242,31.1946309 C27.0425056,31.6957494 26.4340045,31.9463087 25.7181208,31.9463087 C25.0022371,31.9463087 24.393736,31.6957494 23.8926174,31.1946309 L16,23.3020134 L8.10738255,31.1946309 C7.60626398,31.6957494 6.99776286,31.9463087 6.28187919,31.9463087 C5.56599553,31.9463087 4.95749441,31.6957494 4.45637584,31.1946309 L0.805369128,27.5436242 C0.304250559,27.0425056 0.0536912752,26.4340045 0.0536912752,25.7181208 C0.0536912752,25.0022371 0.304250559,24.393736 0.805369128,23.8926174 L8.69798658,16 L0.805369128,8.10738255 C0.304250559,7.60626398 0.0536912752,6.99776286 0.0536912752,6.28187919 C0.0536912752,5.56599553 0.304250559,4.95749441 0.805369128,4.45637584 L4.45637584,0.805369128 C4.95749441,0.304250559 5.56599553,0.0536912752 6.28187919,0.0536912752 C6.99776286,0.0536912752 7.60626398,0.304250559 8.10738255,0.805369128 L16,8.69798658 L23.8926174,0.805369128 C24.393736,0.304250559 25.0022371,0.0536912752 25.7181208,0.0536912752 C26.4340045,0.0536912752 27.0425056,0.304250559 27.5436242,0.805369128 L31.1946309,4.45637584 C31.6957494,4.95749441 31.9463087,5.56599553 31.9463087,6.28187919 C31.9463087,6.99776286 31.6957494,7.60626398 31.1946309,8.10738255 L23.3020134,16 L31.1946309,23.8926174 C31.6957494,24.393736 31.9463087,25.0022371 31.9463087,25.7181208 Z" fill="currentColor"></path>
    </g>
</svg>
