<?xml version="1.0" encoding="UTF-8"?>
<svg width="32px" height="32px" viewBox="0 0 32 32" version="1.1" xmlns="http://www.w3.org/2000/svg" xmlns:xlink="http://www.w3.org/1999/xlink" preserveAspectRatio="xMidYMid">
    <g>
        <path d="M23.9375,20.7083333 C23.9375,20.3472222 23.8055556,20.0347222 23.5416667,19.7708333 L19.7708333,16 L23.5416667,12.2291667 C23.8055556,11.9652778 23.9375,11.6527778 23.9375,11.2916667 C23.9375,10.9166667 23.8055556,10.5972222 23.5416667,10.3333333 L21.6666667,8.45833333 C21.4027778,8.19444444 21.0833333,8.0625 20.7083333,8.0625 C20.3472222,8.0625 20.0347222,8.19444444 19.7708333,8.45833333 L16,12.2291667 L12.2291667,8.45833333 C11.9652778,8.19444444 11.6527778,8.0625 11.2916667,8.0625 C10.9166667,8.0625 10.5972222,8.19444444 10.3333333,8.45833333 L8.45833333,10.3333333 C8.19444444,10.5972222 8.0625,10.9166667 8.0625,11.2916667 C8.0625,11.6527778 8.19444444,11.9652778 8.45833333,12.2291667 L12.2291667,16 L8.45833333,19.7708333 C8.19444444,20.0347222 8.0625,20.3472222 8.0625,20.7083333 C8.0625,21.0833333 8.19444444,21.4027778 8.45833333,21.6666667 L10.3333333,23.5416667 C10.5972222,23.8055556 10.9166667,23.9375 11.2916667,23.9375 C11.6527778,23.9375 11.9652778,23.8055556 12.2291667,23.5416667 L16,19.7708333 L19.7708333,23.5416667 C20.0347222,23.8055556 20.3472222,23.9375 20.7083333,23.9375 C21.0833333,23.9375 21.4027778,23.8055556 21.6666667,23.5416667 L23.5416667,21.6666667 C23.8055556,21.4027778 23.9375,21.0833333 23.9375,20.7083333 Z M32,16 C32,18.9027778 31.2847222,21.5798611 29.8541667,24.03125 C28.4236111,26.4826389 26.4826389,28.4236111 24.03125,29.8541667 C21.5798611,31.2847222 18.9027778,32 16,32 C13.0972222,32 10.4201389,31.2847222 7.96875,29.8541667 C5.51736111,28.4236111 3.57638889,26.4826389 2.14583333,24.03125 C0.715277778,21.5798611 0,18.9027778 0,16 C0,13.0972222 0.715277778,10.4201389 2.14583333,7.96875 C3.57638889,5.51736111 5.51736111,3.57638889 7.96875,2.14583333 C10.4201389,0.715277778 13.0972222,0 16,0 C18.9027778,0 21.5798611,0.715277778 24.03125,2.14583333 C26.4826389,3.57638889 28.4236111,5.51736111 29.8541667,7.96875 C31.2847222,10.4201389 32,13.0972222 32,16 Z" fill="currentColor" ></path>
    </g>
</svg>
