<?xml version="1.0" encoding="UTF-8"?>
<svg width="32px" height="32px" viewBox="0 0 32 32" version="1.1" xmlns="http://www.w3.org/2000/svg" xmlns:xlink="http://www.w3.org/1999/xlink" preserveAspectRatio="xMidYMid">
    <g>
        <path d="M24.4030244,8.42307692 C24.6337937,8.67948718 24.6786655,8.96153846 24.5376398,9.26923077 L14.1530244,31.5192308 C13.9863578,31.8397436 13.717127,32 13.3453321,32 C13.2940501,32 13.2043065,31.9871795 13.0761014,31.9615385 C12.8581527,31.8974359 12.6946911,31.775641 12.5857168,31.5961538 C12.4767424,31.4166667 12.4478962,31.224359 12.4991783,31.0192308 L16.2876398,15.4807692 L8.47994753,17.4230769 C8.42866547,17.4358974 8.3517424,17.4423077 8.2491783,17.4423077 C8.01840906,17.4423077 7.81969112,17.3717949 7.65302445,17.2307692 C7.42225522,17.0384615 7.33892189,16.7884615 7.40302445,16.4807692 L11.2684091,0.615384615 C11.3196911,0.435897436 11.4222552,0.288461538 11.5761014,0.173076923 C11.7299475,0.0576923077 11.9094347,0 12.1145629,0 L18.4222552,0 C18.665845,0 18.8709732,0.0801282051 19.0376398,0.240384615 C19.2043065,0.400641026 19.2876398,0.58974359 19.2876398,0.807692308 C19.2876398,0.91025641 19.2555886,1.02564103 19.191486,1.15384615 L15.9030244,10.0576923 L23.5184091,8.17307692 C23.6209732,8.1474359 23.6978962,8.13461538 23.7491783,8.13461538 C23.992768,8.13461538 24.2107168,8.23076923 24.4030244,8.42307692 Z" fill="currentColor"></path>
    </g>
</svg>
