<?xml version="1.0" encoding="UTF-8"?>
<svg width="32px" height="32px" viewBox="0 0 32 32" version="1.1" xmlns="http://www.w3.org/2000/svg" xmlns:xlink="http://www.w3.org/1999/xlink" preserveAspectRatio="xMidYMid">
    <g>
        <path d="M26.75,12.625 C26.75,12.2361111 26.625,11.9166667 26.375,11.6666667 L24.4791667,9.79166667 C24.2152778,9.52777778 23.9027778,9.39583333 23.5416667,9.39583333 C23.1805556,9.39583333 22.8680556,9.52777778 22.6041667,9.79166667 L14.1041667,18.2708333 L9.39583333,13.5625 C9.13194444,13.2986111 8.81944444,13.1666667 8.45833333,13.1666667 C8.09722222,13.1666667 7.78472222,13.2986111 7.52083333,13.5625 L5.625,15.4375 C5.375,15.6875 5.25,16.0069444 5.25,16.3958333 C5.25,16.7708333 5.375,17.0833333 5.625,17.3333333 L13.1666667,24.875 C13.4305556,25.1388889 13.7430556,25.2708333 14.1041667,25.2708333 C14.4791667,25.2708333 14.7986111,25.1388889 15.0625,24.875 L26.375,13.5625 C26.625,13.3125 26.75,13 26.75,12.625 Z M32,16 C32,18.9027778 31.2847222,21.5798611 29.8541667,24.03125 C28.4236111,26.4826389 26.4826389,28.4236111 24.03125,29.8541667 C21.5798611,31.2847222 18.9027778,32 16,32 C13.0972222,32 10.4201389,31.2847222 7.96875,29.8541667 C5.51736111,28.4236111 3.57638889,26.4826389 2.14583333,24.03125 C0.715277778,21.5798611 0,18.9027778 0,16 C0,13.0972222 0.715277778,10.4201389 2.14583333,7.96875 C3.57638889,5.51736111 5.51736111,3.57638889 7.96875,2.14583333 C10.4201389,0.715277778 13.0972222,0 16,0 C18.9027778,0 21.5798611,0.715277778 24.03125,2.14583333 C26.4826389,3.57638889 28.4236111,5.51736111 29.8541667,7.96875 C31.2847222,10.4201389 32,13.0972222 32,16 Z" fill="currentColor" ></path>
    </g>
</svg>
